<svg width="24" height="24" viewBox="0 0 24 24" fill="none" xmlns="http://www.w3.org/2000/svg">
<path d="M19.4 11.825C19.3167 9.80831 18.575 8.09998 17.175 6.69998C15.775 5.29998 14.0667 4.55831 12.05 4.47498V2.97498C13.25 3.00831 14.3792 3.26248 15.4375 3.73748C16.4958 4.21248 17.425 4.84998 18.225 5.64998C19.025 6.44998 19.6625 7.37914 20.1375 8.43748C20.6125 9.49581 20.8667 10.625 20.9 11.825H19.4ZM15.175 11.825C15.0917 10.9916 14.7583 10.2875 14.175 9.71248C13.5917 9.13748 12.8833 8.80831 12.05 8.72498V7.22498C13.3 7.30831 14.3625 7.78331 15.2375 8.64998C16.1125 9.51664 16.5917 10.575 16.675 11.825H15.175ZM19.875 21C17.8417 21 15.8208 20.5 13.8125 19.5C11.8042 18.5 10 17.2 8.4 15.6C6.8 14 5.5 12.1958 4.5 10.1875C3.5 8.17914 3 6.15831 3 4.12498C3 3.80354 3.10714 3.53568 3.32142 3.3214C3.53571 3.10712 3.80357 2.99998 4.125 2.99998H7.625C7.85185 2.99998 8.0544 3.07914 8.23265 3.23748C8.41088 3.39581 8.525 3.60831 8.575 3.87498L9.25 7.02498C9.28333 7.25831 9.27917 7.47081 9.2375 7.66248C9.19583 7.85414 9.10833 8.01664 8.975 8.14998L6.475 10.675C7.40833 12.225 8.45417 13.575 9.6125 14.725C10.7708 15.875 12.0833 16.85 13.55 17.65L15.925 15.2C16.0917 15.0166 16.2833 14.8875 16.5 14.8125C16.7167 14.7375 16.9333 14.725 17.15 14.775L20.125 15.425C20.3802 15.4812 20.5898 15.6078 20.7539 15.8047C20.918 16.0015 21 16.2333 21 16.5V19.875C21 20.1964 20.8929 20.4643 20.6786 20.6786C20.4643 20.8928 20.1964 21 19.875 21ZM5.725 9.29998L7.75 7.24998L7.175 4.49998H4.5C4.5 5.14998 4.6 5.86248 4.8 6.63748C5 7.41248 5.30833 8.29998 5.725 9.29998ZM14.95 18.375C15.6333 18.6916 16.375 18.95 17.175 19.15C17.975 19.35 18.75 19.4666 19.5 19.5V16.825L16.925 16.3L14.95 18.375Z" fill="#0C91FC"/>
</svg>
