<svg width="68" height="68" viewBox="0 0 68 68" fill="none" xmlns="http://www.w3.org/2000/svg">
    <g filter="url(#filter0_b_21_741)">
        <rect x="1" y="1" width="66" height="66" rx="33" fill="url(#paint0_radial_21_741)"
            fill-opacity="0.2" />
        <rect x="1" y="1" width="66" height="66" rx="33" stroke="url(#paint1_linear_21_741)" />
    </g>
    <g filter="url(#filter1_d_21_741)">
        <path
            d="M21.1094 49.4688C20.4219 49.4688 19.8203 49.2109 19.3047 48.6953C18.7891 48.1797 18.5312 47.5781 18.5312 46.8906V21.1094C18.5312 20.4219 18.7891 19.8203 19.3047 19.3047C19.8203 18.7891 20.4219 18.5312 21.1094 18.5312H40.9609L49.4688 27.0391V46.8906C49.4688 47.5781 49.2109 48.1797 48.6953 48.6953C48.1797 49.2109 47.5781 49.4688 46.8906 49.4688H21.1094ZM21.1094 46.8906H46.8906V28.4755H39.543V21.1094H21.1094V46.8906ZM25.3633 42.1211H42.6367V39.543H25.3633V42.1211ZM25.3633 28.457H34V25.8789H25.3633V28.457ZM25.3633 35.2891H42.6367V32.7109H25.3633V35.2891Z"
            fill="white" />
    </g>
    <defs>
        <filter id="filter0_b_21_741" x="-23.5" y="-23.5" width="115" height="115"
            filterUnits="userSpaceOnUse" color-interpolation-filters="sRGB">
            <feFlood flood-opacity="0" result="BackgroundImageFix" />
            <feGaussianBlur in="BackgroundImageFix" stdDeviation="12" />
            <feComposite in2="SourceAlpha" operator="in" result="effect1_backgroundBlur_21_741" />
            <feBlend mode="normal" in="SourceGraphic" in2="effect1_backgroundBlur_21_741"
                result="shape" />
        </filter>
        <filter id="filter1_d_21_741" x="9.375" y="11.375" width="49.25" height="49.25"
            filterUnits="userSpaceOnUse" color-interpolation-filters="sRGB">
            <feFlood flood-opacity="0" result="BackgroundImageFix" />
            <feColorMatrix in="SourceAlpha" type="matrix"
                values="0 0 0 0 0 0 0 0 0 0 0 0 0 0 0 0 0 0 127 0" result="hardAlpha" />
            <feOffset dy="2" />
            <feGaussianBlur stdDeviation="2" />
            <feComposite in2="hardAlpha" operator="out" />
            <feColorMatrix type="matrix" values="0 0 0 0 1 0 0 0 0 1 0 0 0 0 1 0 0 0 0.21 0" />
            <feBlend mode="normal" in2="BackgroundImageFix" result="effect1_dropShadow_21_741" />
            <feBlend mode="normal" in="SourceGraphic" in2="effect1_dropShadow_21_741" result="shape" />
        </filter>
        <radialGradient id="paint0_radial_21_741" cx="0" cy="0" r="1" gradientUnits="userSpaceOnUse"
            gradientTransform="translate(1 1) rotate(45) scale(93.3381)">
            <stop stop-color="#FAFAFA" />
            <stop offset="1" stop-color="#F7F7F7" stop-opacity="0" />
        </radialGradient>
        <linearGradient id="paint1_linear_21_741" x1="34" y1="1" x2="34" y2="67"
            gradientUnits="userSpaceOnUse">
            <stop stop-color="white" stop-opacity="0.35" />
            <stop offset="1" stop-color="white" stop-opacity="0" />
        </linearGradient>
    </defs>
</svg>