<svg width="190" height="62" viewBox="0 0 190 62" fill="none" xmlns="http://www.w3.org/2000/svg">
    <path
        d="M4.68732 22.3121C4.90483 22.3121 5.06891 22.4449 5.14523 22.7143L10.4074 39.452C10.4093 39.4836 10.4176 39.5145 10.4318 39.5428C10.446 39.5712 10.4658 39.5964 10.49 39.6169C10.5142 39.6375 10.5424 39.6529 10.5728 39.6624C10.6032 39.6719 10.6352 39.6752 10.6669 39.672H10.8309C10.891 39.6692 10.9482 39.6456 10.9927 39.6055C11.0372 39.5654 11.0664 39.5111 11.0752 39.452L16.3411 24.1103C16.4851 23.542 16.8171 23.0383 17.2836 22.6801C17.7239 22.4165 18.2314 22.2848 18.7451 22.3008H21.962C22.5375 22.2637 23.1105 22.4041 23.6028 22.7029C24.0448 23.0676 24.3677 23.5549 24.5301 24.1028L29.9372 39.452C29.9472 39.5133 29.9787 39.5691 30.0263 39.6094C30.0738 39.6497 30.1342 39.6719 30.1967 39.672H30.3913C30.4544 39.6728 30.5158 39.6511 30.5641 39.6107C30.6124 39.5703 30.6445 39.514 30.6546 39.452L35.787 22.7143C35.7978 22.6481 35.8224 22.5849 35.8592 22.5287C35.896 22.4726 35.9442 22.4246 36.0007 22.388C36.0947 22.3385 36.1995 22.3124 36.306 22.3121H40.6943C40.7637 22.303 40.8341 22.3201 40.8913 22.3602C40.9486 22.4003 40.9886 22.4603 41.0033 22.5284C41.0325 22.6954 41.0154 22.8673 40.9537 23.0254L34.7338 41.7282C34.4323 42.6615 34.0965 43.2912 33.7264 43.6251C33.306 43.9665 32.7726 44.1397 32.2306 44.1106H28.4147C27.8755 44.1422 27.3453 43.9624 26.9379 43.6099C26.4556 43.0683 26.1033 42.4249 25.9076 41.7282L20.8057 26.9328C20.8039 26.9014 20.7956 26.8706 20.7813 26.8425C20.7671 26.8143 20.7472 26.7893 20.7229 26.7691C20.6986 26.7488 20.6704 26.7337 20.64 26.7247C20.6096 26.7157 20.5777 26.7129 20.5462 26.7166H20.4165C20.385 26.7129 20.3531 26.7157 20.3227 26.7247C20.2924 26.7337 20.2642 26.7488 20.2399 26.7691C20.2156 26.7893 20.1957 26.8143 20.1814 26.8425C20.1672 26.8706 20.1589 26.9014 20.157 26.9328L14.9903 41.7282C14.793 42.4182 14.4437 43.0558 13.9676 43.5947C13.5584 43.9468 13.0273 44.1264 12.487 44.0955H8.78561C8.46381 44.0988 8.14262 44.067 7.82782 44.0006C7.56059 43.9389 7.31122 43.8169 7.09898 43.644C6.8609 43.4404 6.66628 43.1915 6.52659 42.9118C6.33689 42.5307 6.17865 42.1348 6.05342 41.7282L0.073885 23.0254C0.0079658 22.8631 -0.0143891 22.6866 0.00901453 22.5132C0.0269399 22.4479 0.0682748 22.3915 0.125218 22.3544C0.18216 22.3174 0.250772 22.3023 0.318103 22.3121H4.68732Z"
        fill="white" />
    <path
        d="M54.7026 22.3124C55.4252 22.288 56.1414 22.4542 56.7784 22.7942C57.4862 23.2745 58.0579 23.9277 58.4383 24.691L69.1954 43.3939C69.2445 43.4687 69.2771 43.5531 69.2909 43.6414C69.3047 43.7297 69.2995 43.8199 69.2755 43.9061C69.2221 44.0426 69.0657 44.1109 68.8024 44.1109H64.6774C64.5238 44.128 64.3686 44.0984 64.2323 44.0259C64.096 43.9534 63.9851 43.8415 63.9142 43.705L61.6246 39.6913H46.361L44.1172 43.705C44.0432 43.8388 43.9317 43.9484 43.7962 44.0205C43.6607 44.0925 43.5071 44.1239 43.354 44.1109H39.1336C38.8513 44.1109 38.6834 44.0426 38.6299 43.9061C38.6058 43.8197 38.6008 43.7292 38.6153 43.6408C38.6298 43.5524 38.6634 43.4681 38.7139 43.3939L49.3717 24.691C49.7448 23.9432 50.29 23.2934 50.963 22.7942C51.5111 22.4645 52.1427 22.2973 52.7832 22.3124H54.7026ZM48.3949 36.0645H59.5755L54.4087 26.9331C54.3749 26.8676 54.3235 26.8128 54.2601 26.7746C54.1968 26.7364 54.1241 26.7164 54.05 26.7169H53.8554C53.7814 26.7164 53.7087 26.7364 53.6454 26.7746C53.582 26.8128 53.5306 26.8676 53.4967 26.9331L48.3949 36.0645Z"
        fill="white" />
    <path
        d="M68.7375 22.3121C68.9005 22.3006 69.0637 22.332 69.2107 22.4031C69.3253 22.4842 69.4194 22.5907 69.4854 22.7142L78.9985 39.4519C79.0313 39.5234 79.0857 39.5829 79.1541 39.6223C79.2224 39.6617 79.3014 39.6791 79.3801 39.672H79.5403C79.6153 39.6744 79.6892 39.6548 79.753 39.6156C79.8168 39.5765 79.8676 39.5196 79.899 39.4519L89.3014 22.7142C89.3729 22.5784 89.4841 22.4673 89.6203 22.3955C89.7565 22.3237 89.9114 22.2946 90.0646 22.3121H94.3232C94.5827 22.3121 94.7391 22.3804 94.7925 22.5131C94.8167 22.5992 94.8221 22.6895 94.8083 22.7778C94.7945 22.8662 94.7618 22.9506 94.7124 23.0253L84.0469 41.7281C83.6798 42.4809 83.132 43.1324 82.4519 43.625C81.9005 43.946 81.2705 44.1088 80.6317 44.0954H78.7466C78.0191 44.1219 77.2972 43.9597 76.6517 43.625C76.0984 43.3139 75.5527 42.6841 75.0108 41.7281L64.2233 23.0253C64.1726 22.9512 64.1388 22.8669 64.1243 22.7784C64.1098 22.69 64.1149 22.5994 64.1393 22.5131C64.1966 22.3804 64.3645 22.3121 64.6468 22.3121H68.7375Z"
        fill="white" />
    <path
        d="M119.302 22.3123C119.802 22.3123 120.065 22.5399 120.065 22.9952V25.9505C120.065 26.4095 119.817 26.6371 119.302 26.6371H105.103C104.399 26.6232 103.696 26.6906 103.008 26.8382C102.51 26.9452 102.049 27.1822 101.673 27.5248C101.316 27.8822 101.073 28.3361 100.974 28.8299C100.833 29.4995 100.767 30.1829 100.78 30.8671V31.1782H119.142C119.237 31.1634 119.334 31.1707 119.426 31.1996C119.518 31.2285 119.602 31.2782 119.671 31.3448C119.74 31.4113 119.793 31.4929 119.825 31.5832C119.857 31.6734 119.867 31.7698 119.856 31.8648V34.3231C119.856 34.7784 119.619 35.006 119.142 35.006H100.78V35.5371C100.767 36.2213 100.833 36.9047 100.974 37.5743C101.074 38.0689 101.317 38.5237 101.673 38.8831C102.049 39.2246 102.51 39.4603 103.008 39.566C103.696 39.7154 104.399 39.7829 105.103 39.7671H119.302C119.802 39.7671 120.065 39.9985 120.065 40.4537V43.409C120.065 43.8642 119.817 44.0957 119.302 44.0957H105.004C103.592 44.1207 102.183 43.9742 100.807 43.6594C99.7667 43.4237 98.801 42.9378 97.9942 42.2443C97.2444 41.5495 96.695 40.668 96.4029 39.6912C96.0427 38.4593 95.8728 37.1801 95.8992 35.8975V30.5256C95.8699 29.2429 96.0398 27.9632 96.4029 26.732C96.6963 25.7601 97.2457 24.8838 97.9942 24.194C98.8035 23.4961 99.7712 23.004 100.814 22.76C102.188 22.4319 103.599 22.2802 105.012 22.3085L119.302 22.3123Z"
        fill="white" />
    <path
        d="M135.741 31.709C135.819 31.6966 135.898 31.7024 135.974 31.7259C136.049 31.7494 136.118 31.7901 136.174 31.8445C136.231 31.899 136.274 31.9659 136.3 32.0398C136.326 32.1137 136.335 32.1927 136.325 32.2705V34.5201C136.335 34.5979 136.326 34.6768 136.3 34.7508C136.274 34.8247 136.231 34.8915 136.174 34.946C136.118 35.0005 136.049 35.0411 135.974 35.0647C135.898 35.0882 135.819 35.094 135.741 35.0816H125.957C125.879 35.094 125.799 35.0882 125.724 35.0647C125.649 35.0411 125.58 35.0005 125.524 34.946C125.467 34.8915 125.424 34.8247 125.398 34.7508C125.372 34.6768 125.363 34.5979 125.373 34.5201V32.2818C125.363 32.2041 125.372 32.1251 125.398 32.0512C125.424 31.9773 125.467 31.9104 125.524 31.8559C125.58 31.8014 125.649 31.7608 125.724 31.7373C125.799 31.7138 125.879 31.708 125.957 31.7204L135.741 31.709Z"
        fill="white" />
    <path
        d="M135.046 11.9364C135.109 11.879 135.186 11.8413 135.27 11.828C135.354 11.8148 135.44 11.8266 135.517 11.862C135.594 11.8974 135.658 11.9548 135.702 12.0269C135.747 12.0989 135.768 12.1823 135.764 12.2666C135.76 12.3508 135.732 12.432 135.681 12.4999C135.631 12.5677 135.561 12.6192 135.482 12.6476C135.402 12.6761 135.315 12.6803 135.233 12.6597C135.151 12.6391 135.076 12.5946 135.02 12.532C134.945 12.4491 134.905 12.3402 134.91 12.2287C134.915 12.1173 134.964 12.0123 135.046 11.9364Z"
        fill="#69BDF9" />
    <path
        d="M140.404 8.12361C140.543 7.99712 140.717 7.91444 140.903 7.88599C141.089 7.85754 141.28 7.88461 141.451 7.96378C141.622 8.04295 141.765 8.17066 141.863 8.3308C141.961 8.49095 142.009 8.67634 142.001 8.86357C141.993 9.05081 141.929 9.2315 141.818 9.38283C141.707 9.53417 141.553 9.64936 141.376 9.71388C141.199 9.77839 141.007 9.78933 140.824 9.74532C140.641 9.7013 140.475 9.60431 140.347 9.46657C140.176 9.28073 140.086 9.03505 140.096 8.78334C140.107 8.53162 140.218 8.2944 140.404 8.12361Z"
        fill="#69BDF9" />
    <path
        d="M146.54 5.68823C146.735 5.51031 146.978 5.39373 147.239 5.35325C147.5 5.31278 147.767 5.35023 148.007 5.46086C148.247 5.5715 148.448 5.75034 148.585 5.97476C148.723 6.19918 148.79 6.45909 148.779 6.72159C148.768 6.98408 148.678 7.23737 148.522 7.44938C148.366 7.6614 148.15 7.82261 147.902 7.91263C147.654 8.00264 147.384 8.0174 147.128 7.95504C146.871 7.89268 146.639 7.75601 146.46 7.56231C146.341 7.43418 146.249 7.28398 146.189 7.12034C146.128 6.95671 146.101 6.78284 146.109 6.60873C146.116 6.43462 146.158 6.26368 146.232 6.10572C146.306 5.94776 146.411 5.80589 146.54 5.68823Z"
        fill="#69BDF9" />
    <path
        d="M153.058 4.81182C153.294 4.5935 153.591 4.4501 153.91 4.39984C154.229 4.34959 154.556 4.39474 154.849 4.52957C155.143 4.6644 155.389 4.88282 155.557 5.15708C155.725 5.43135 155.807 5.74908 155.793 6.06992C155.779 6.39076 155.67 6.70022 155.478 6.95901C155.287 7.21779 155.023 7.41421 154.719 7.52332C154.415 7.63244 154.086 7.64931 153.772 7.5718C153.459 7.4943 153.175 7.32591 152.958 7.08803C152.67 6.77206 152.519 6.35582 152.537 5.92966C152.556 5.5035 152.743 5.10182 153.058 4.81182Z"
        fill="#69BDF9" />
    <path
        d="M159.613 5.49458C159.88 5.25133 160.214 5.09233 160.572 5.03768C160.93 4.98304 161.297 5.0352 161.625 5.18757C161.953 5.33995 162.229 5.58569 162.417 5.89372C162.604 6.20175 162.696 6.55823 162.68 6.91807C162.664 7.2779 162.541 7.62494 162.327 7.91527C162.112 8.20561 161.816 8.4262 161.475 8.54916C161.135 8.67211 160.765 8.6919 160.413 8.60602C160.062 8.52015 159.743 8.33246 159.499 8.0667C159.171 7.71047 158.999 7.23941 159.02 6.75708C159.042 6.27474 159.255 5.82063 159.613 5.49458Z"
        fill="#69BDF9" />
    <path
        d="M165.818 7.70997C166.105 7.4492 166.463 7.2788 166.847 7.22029C167.231 7.16178 167.624 7.2178 167.976 7.38127C168.328 7.54473 168.623 7.8083 168.825 8.13866C169.026 8.46902 169.125 8.85134 169.108 9.2373C169.091 9.62325 168.959 9.99551 168.729 10.307C168.499 10.6185 168.182 10.8553 167.816 10.9874C167.451 11.1196 167.055 11.1411 166.677 11.0493C166.3 10.9575 165.958 10.7565 165.696 10.4718C165.521 10.2825 165.386 10.0609 165.298 9.81966C165.209 9.5784 165.17 9.3222 165.181 9.06571C165.192 8.80921 165.255 8.55745 165.364 8.32483C165.473 8.0922 165.627 7.88326 165.818 7.70997Z"
        fill="#69BDF9" />
    <path
        d="M171.302 11.3483C171.597 11.0796 171.966 10.9041 172.362 10.8439C172.758 10.7838 173.163 10.8416 173.526 11.0102C173.889 11.1788 174.194 11.4506 174.401 11.7911C174.609 12.1317 174.71 12.5258 174.693 12.9237C174.675 13.3215 174.539 13.7053 174.303 14.0264C174.066 14.3476 173.738 14.5917 173.362 14.728C172.986 14.8643 172.577 14.8867 172.188 14.7922C171.799 14.6977 171.447 14.4907 171.176 14.1973C170.996 14.0021 170.856 13.7736 170.765 13.5247C170.674 13.2758 170.633 13.0115 170.644 12.7468C170.656 12.4822 170.72 12.2224 170.833 11.9824C170.946 11.7425 171.105 11.527 171.302 11.3483Z"
        fill="#69BDF9" />
    <path
        d="M175.743 16.1745C176.04 15.9031 176.411 15.7254 176.809 15.6638C177.207 15.6021 177.615 15.6593 177.981 15.8281C178.346 15.9969 178.654 16.2698 178.863 16.6121C179.073 16.9545 179.176 17.3509 179.158 17.7514C179.141 18.1518 179.005 18.5382 178.767 18.8617C178.529 19.1851 178.2 19.4311 177.821 19.5685C177.442 19.7059 177.031 19.7286 176.64 19.6336C176.248 19.5386 175.893 19.3303 175.621 19.0349C175.257 18.6389 175.065 18.1157 175.088 17.5796C175.111 17.0436 175.347 16.5384 175.743 16.1745Z"
        fill="#69BDF9" />
    <path
        d="M178.891 21.9028C179.183 21.6386 179.547 21.4661 179.937 21.4072C180.327 21.3484 180.725 21.4057 181.083 21.5721C181.44 21.7384 181.739 22.0062 181.944 22.3418C182.148 22.6773 182.247 23.0655 182.23 23.4573C182.212 23.849 182.078 24.2268 181.845 24.543C181.611 24.8591 181.289 25.0994 180.918 25.2334C180.548 25.3675 180.145 25.3893 179.762 25.2962C179.379 25.203 179.032 24.9991 178.765 24.7101C178.408 24.3211 178.22 23.8069 178.244 23.2805C178.268 22.7541 178.5 22.2586 178.891 21.9028Z"
        fill="#69BDF9" />
    <path
        d="M180.551 28.2193C180.827 27.9702 181.17 27.8077 181.538 27.7525C181.906 27.6972 182.283 27.7516 182.62 27.9087C182.957 28.0659 183.24 28.3188 183.433 28.6355C183.625 28.9522 183.719 29.3186 183.703 29.6884C183.686 30.0583 183.56 30.4149 183.34 30.7135C183.12 31.0121 182.816 31.2391 182.466 31.366C182.116 31.4929 181.736 31.514 181.374 31.4266C181.013 31.3392 180.685 31.1472 180.433 30.8749C180.264 30.6931 180.134 30.4801 180.049 30.248C179.964 30.0159 179.925 29.7694 179.936 29.5226C179.947 29.2758 180.007 29.0336 180.113 28.8099C180.218 28.5863 180.367 28.3855 180.551 28.2193Z"
        fill="#69BDF9" />
    <path
        d="M180.639 34.7518C180.888 34.5251 181.198 34.3769 181.532 34.3259C181.866 34.2749 182.207 34.3234 182.513 34.4652C182.818 34.6071 183.075 34.836 183.25 35.1229C183.425 35.4099 183.51 35.7419 183.495 36.0771C183.48 36.4123 183.366 36.7355 183.166 37.0059C182.966 37.2763 182.69 37.4817 182.373 37.5961C182.056 37.7105 181.711 37.7287 181.384 37.6486C181.056 37.5684 180.76 37.3933 180.532 37.1456C180.228 36.8135 180.069 36.3753 180.089 35.9268C180.109 35.4783 180.307 35.0559 180.639 34.7518Z"
        fill="#69BDF9" />
    <path
        d="M179.155 41.1171C179.364 40.9256 179.626 40.8001 179.907 40.7567C180.189 40.7133 180.477 40.7538 180.735 40.8731C180.993 40.9925 181.21 41.1853 181.358 41.4271C181.505 41.669 181.578 41.949 181.565 42.2317C181.553 42.5145 181.457 42.7873 181.288 43.0155C181.12 43.2438 180.887 43.4173 180.62 43.514C180.352 43.6108 180.062 43.6264 179.786 43.559C179.509 43.4916 179.259 43.3442 179.067 43.1354C178.939 42.9972 178.84 42.8354 178.775 42.6591C178.71 42.4829 178.681 42.2956 178.689 42.1081C178.697 41.9206 178.743 41.7366 178.823 41.5665C178.902 41.3965 179.015 41.2438 179.155 41.1171Z"
        fill="#69BDF9" />
    <path
        d="M176.174 46.9526C176.332 46.8095 176.529 46.716 176.74 46.6841C176.951 46.6522 177.167 46.6832 177.36 46.7732C177.554 46.8632 177.716 47.0082 177.826 47.1899C177.937 47.3715 177.991 47.5817 177.981 47.7938C177.972 48.0058 177.899 48.2103 177.773 48.3814C177.646 48.5524 177.471 48.6824 177.271 48.7548C177.07 48.8272 176.852 48.8387 176.645 48.7881C176.437 48.7374 176.25 48.6268 176.106 48.4701C176.01 48.366 175.936 48.2442 175.887 48.1116C175.839 47.979 175.817 47.8382 175.824 47.6972C175.83 47.5563 175.864 47.418 175.924 47.2902C175.985 47.1625 176.069 47.0478 176.174 46.9526Z"
        fill="#69BDF9" />
    <path
        d="M171.862 51.9028C171.918 51.8515 171.984 51.8117 172.055 51.7856C172.126 51.7596 172.202 51.7478 172.278 51.751C172.354 51.7542 172.428 51.7722 172.497 51.8041C172.566 51.836 172.628 51.8812 172.679 51.9369C172.73 51.9925 172.77 52.0575 172.796 52.1284C172.822 52.1993 172.834 52.2745 172.831 52.3499C172.828 52.4253 172.81 52.4993 172.778 52.5678C172.746 52.6362 172.7 52.6977 172.645 52.7488C172.589 52.7998 172.523 52.8395 172.452 52.8654C172.381 52.8913 172.305 52.903 172.229 52.8998C172.153 52.8967 172.079 52.8787 172.01 52.8469C171.941 52.8151 171.879 52.7702 171.828 52.7146C171.776 52.6592 171.736 52.5942 171.71 52.5233C171.684 52.4524 171.672 52.3771 171.675 52.3016C171.679 52.2261 171.697 52.1521 171.729 52.0836C171.761 52.0152 171.806 51.9537 171.862 51.9028Z"
        fill="#69BDF9" />
    <path
        d="M147.685 1.38619C147.774 1.35808 147.87 1.35697 147.96 1.38299C148.05 1.40902 148.13 1.46101 148.19 1.53238C148.25 1.60375 148.288 1.69128 148.298 1.78389C148.308 1.87649 148.29 1.96999 148.247 2.05255C148.203 2.1351 148.136 2.20299 148.054 2.24761C147.972 2.29223 147.878 2.31157 147.785 2.30318C147.691 2.29479 147.603 2.25905 147.53 2.20048C147.457 2.14192 147.403 2.06316 147.376 1.97421C147.338 1.85548 147.35 1.72698 147.408 1.6168C147.466 1.50662 147.565 1.42371 147.685 1.38619Z"
        fill="#69BDF9" />
    <path
        d="M154.87 0.0471419C155.07 -0.0144625 155.284 -0.0157159 155.485 0.0435397C155.686 0.102795 155.865 0.219904 155.999 0.380085C156.133 0.540267 156.216 0.736341 156.239 0.943561C156.261 1.15078 156.22 1.35986 156.123 1.54441C156.026 1.72895 155.876 1.8807 155.692 1.98049C155.508 2.08028 155.298 2.12364 155.089 2.10511C154.88 2.08657 154.682 2.00696 154.519 1.87634C154.355 1.74571 154.235 1.56991 154.172 1.37114C154.13 1.23863 154.115 1.09919 154.127 0.960826C154.139 0.822464 154.179 0.687907 154.244 0.564882C154.309 0.441857 154.398 0.332787 154.505 0.243938C154.613 0.155088 154.737 0.0882093 154.87 0.0471419Z"
        fill="#69BDF9" />
    <path
        d="M162.185 0.468223C162.465 0.38121 162.764 0.378457 163.045 0.460313C163.325 0.542169 163.576 0.704961 163.763 0.928118C163.951 1.15128 164.068 1.42479 164.1 1.71409C164.132 2.00339 164.076 2.2955 163.941 2.55352C163.805 2.81153 163.596 3.02387 163.339 3.1637C163.083 3.30353 162.79 3.36458 162.499 3.33914C162.207 3.31369 161.93 3.2029 161.701 3.02074C161.473 2.83859 161.304 2.59326 161.216 2.31575C161.157 2.13119 161.135 1.93683 161.152 1.74386C161.169 1.55089 161.224 1.36314 161.314 1.19141C161.404 1.01967 161.527 0.867361 161.677 0.743244C161.826 0.619127 161.999 0.525658 162.185 0.468223Z"
        fill="#69BDF9" />
    <path
        d="M169.176 2.61871C169.517 2.51221 169.882 2.50865 170.226 2.60847C170.569 2.70829 170.875 2.90702 171.104 3.17955C171.334 3.45207 171.477 3.78615 171.516 4.13958C171.555 4.49301 171.487 4.84992 171.322 5.16521C171.157 5.4805 170.901 5.74003 170.587 5.91099C170.274 6.08195 169.916 6.15667 169.56 6.12571C169.204 6.09476 168.865 5.95951 168.586 5.73707C168.307 5.51462 168.101 5.21496 167.993 4.87595C167.921 4.65052 167.895 4.41327 167.916 4.17776C167.937 3.94226 168.004 3.71312 168.114 3.50347C168.223 3.29381 168.374 3.10775 168.556 2.95594C168.738 2.80412 168.949 2.68952 169.176 2.61871Z"
        fill="#69BDF9" />
    <path
        d="M175.457 6.36744C175.841 6.24725 176.251 6.24282 176.637 6.35472C177.024 6.46661 177.368 6.6898 177.626 6.99608C177.885 7.30236 178.046 7.67797 178.09 8.07543C178.134 8.47289 178.058 8.87436 177.873 9.22908C177.687 9.58381 177.4 9.87586 177.047 10.0683C176.695 10.2608 176.293 10.345 175.892 10.3104C175.491 10.2757 175.11 10.1238 174.796 9.8737C174.482 9.62362 174.25 9.28666 174.129 8.90541C174.048 8.65208 174.019 8.38546 174.042 8.12077C174.065 7.85609 174.141 7.59854 174.264 7.36283C174.387 7.12713 174.556 6.91791 174.761 6.74711C174.966 6.57631 175.202 6.4473 175.457 6.36744Z"
        fill="#69BDF9" />
    <path
        d="M180.658 11.4966C181.07 11.3687 181.511 11.3651 181.925 11.4861C182.339 11.6071 182.707 11.8473 182.984 12.1765C183.26 12.5056 183.433 12.9089 183.479 13.3353C183.525 13.7618 183.443 14.1923 183.244 14.5725C183.044 14.9527 182.735 15.2655 182.357 15.4715C181.978 15.6774 181.547 15.7672 181.117 15.7295C180.687 15.6919 180.279 15.5284 179.942 15.2598C179.606 14.9912 179.357 14.6296 179.227 14.2205C179.14 13.9483 179.109 13.6616 179.133 13.3771C179.158 13.0926 179.24 12.8158 179.373 12.5626C179.506 12.3095 179.688 12.0849 179.908 11.902C180.129 11.7191 180.384 11.5813 180.658 11.4966Z"
        fill="#69BDF9" />
    <path
        d="M184.459 17.7216C184.883 17.5883 185.338 17.5831 185.766 17.7068C186.194 17.8305 186.575 18.0775 186.861 18.4166C187.147 18.7556 187.326 19.1715 187.375 19.6116C187.423 20.0517 187.34 20.4962 187.134 20.889C186.929 21.2818 186.61 21.6051 186.22 21.8181C185.83 22.0311 185.385 22.1243 184.941 22.0857C184.497 22.0472 184.075 21.8787 183.728 21.6016C183.38 21.3245 183.124 20.9512 182.99 20.5289C182.9 20.2487 182.867 19.9537 182.893 19.6608C182.918 19.368 183.002 19.083 183.138 18.8222C183.275 18.5614 183.462 18.3299 183.688 18.1411C183.915 17.9522 184.177 17.8097 184.459 17.7216Z"
        fill="#69BDF9" />
    <path
        d="M186.657 24.6565C187.084 24.5233 187.541 24.5189 187.97 24.6438C188.4 24.7688 188.782 25.0175 189.069 25.3586C189.357 25.6996 189.536 26.1177 189.584 26.5599C189.632 27.0022 189.548 27.4487 189.341 27.8431C189.134 28.2375 188.814 28.5621 188.422 28.7759C188.029 28.9896 187.582 29.0829 187.136 29.0439C186.69 29.0049 186.266 28.8354 185.917 28.5569C185.569 28.2784 185.311 27.9032 185.176 27.479C185.087 27.197 185.054 26.9003 185.08 26.6058C185.106 26.3113 185.19 26.0248 185.328 25.7626C185.465 25.5005 185.654 25.2679 185.882 25.0781C186.11 24.8883 186.373 24.745 186.657 24.6565Z"
        fill="#69BDF9" />
    <path
        d="M187.119 31.8913C187.537 31.7607 187.985 31.7563 188.405 31.8787C188.826 32.001 189.201 32.2447 189.482 32.5788C189.764 32.9129 189.94 33.3224 189.987 33.7557C190.034 34.189 189.952 34.6265 189.749 35.013C189.546 35.3995 189.233 35.7175 188.849 35.927C188.464 36.1365 188.026 36.228 187.589 36.1899C187.152 36.1517 186.737 35.9858 186.395 35.7129C186.053 35.4401 185.8 35.0726 185.669 34.6569C185.58 34.3807 185.548 34.0899 185.573 33.8012C185.598 33.5125 185.681 33.2316 185.816 32.9746C185.95 32.7176 186.135 32.4897 186.358 32.3038C186.582 32.1179 186.84 31.9777 187.119 31.8913Z"
        fill="#69BDF9" />
    <path
        d="M185.806 39.0235C186.201 38.9001 186.624 38.8959 187.022 39.0114C187.419 39.127 187.773 39.3572 188.039 39.6728C188.305 39.9885 188.471 40.3755 188.516 40.7848C188.561 41.1942 188.483 41.6077 188.291 41.9729C188.1 42.3381 187.804 42.6387 187.441 42.8367C187.078 43.0347 186.664 43.1212 186.251 43.0853C185.838 43.0494 185.446 42.8926 185.122 42.6349C184.799 42.3772 184.56 42.03 184.436 41.6373C184.269 41.1101 184.32 40.5388 184.577 40.0488C184.834 39.5588 185.276 39.19 185.806 39.0235Z"
        fill="#69BDF9" />
    <path
        d="M182.81 45.6433C183.17 45.5275 183.557 45.5208 183.921 45.6241C184.285 45.7274 184.61 45.936 184.854 46.2233C185.098 46.5106 185.251 46.8637 185.293 47.2376C185.335 47.6116 185.265 47.9895 185.09 48.3233C184.915 48.6571 184.645 48.9318 184.313 49.1123C183.981 49.2929 183.602 49.3712 183.225 49.3372C182.848 49.3033 182.49 49.1587 182.196 48.9217C181.902 48.6848 181.685 48.3663 181.574 48.0067C181.426 47.5303 181.473 47.0152 181.704 46.5729C181.936 46.1306 182.333 45.7966 182.81 45.6433Z"
        fill="#69BDF9" />
    <path
        d="M178.307 51.3645C178.608 51.2701 178.931 51.2666 179.233 51.3544C179.536 51.4421 179.806 51.6173 180.009 51.8576C180.212 52.0979 180.339 52.3926 180.373 52.7045C180.407 53.0163 180.348 53.3313 180.202 53.6095C180.056 53.8877 179.83 54.1166 179.554 54.2674C179.277 54.4182 178.962 54.4839 178.647 54.4564C178.333 54.4289 178.034 54.3093 177.788 54.1128C177.542 53.9163 177.36 53.6516 177.266 53.3524C177.14 52.9514 177.179 52.5173 177.374 52.1448C177.569 51.7723 177.905 51.4918 178.307 51.3645Z"
        fill="#69BDF9" />
    <path
        d="M172.549 55.8442C172.776 55.7726 173.019 55.7694 173.248 55.8352C173.476 55.9009 173.68 56.0325 173.833 56.2134C173.986 56.3942 174.082 56.6162 174.108 56.8512C174.134 57.0862 174.09 57.3237 173.98 57.5336C173.871 57.7434 173.701 57.9163 173.493 58.0302C173.284 58.1442 173.047 58.1941 172.81 58.1736C172.573 58.1532 172.347 58.0633 172.162 57.9154C171.976 57.7675 171.839 57.5682 171.767 57.3427C171.673 57.0408 171.703 56.7144 171.849 56.434C171.996 56.1536 172.247 55.9418 172.549 55.8442Z"
        fill="#69BDF9" />
    <path
        d="M165.871 58.8186C165.992 58.781 166.122 58.7799 166.243 58.8153C166.365 58.8508 166.473 58.9213 166.555 59.0179C166.636 59.1145 166.687 59.2329 166.7 59.3581C166.714 59.4834 166.69 59.6098 166.631 59.7215C166.573 59.8332 166.482 59.9252 166.371 59.9857C166.26 60.0463 166.133 60.0728 166.007 60.0618C165.881 60.0508 165.761 60.0029 165.662 59.9242C165.563 59.8454 165.49 59.7392 165.452 59.6191C165.426 59.5392 165.417 59.455 165.424 59.3714C165.432 59.2879 165.455 59.2066 165.494 59.1323C165.533 59.0579 165.587 58.9919 165.652 58.9381C165.716 58.8843 165.791 58.8437 165.871 58.8186Z"
        fill="#69BDF9" />
    <path
        d="M164.315 22.3125C164.792 22.3125 165.028 22.5401 165.028 22.9954V25.9506C165.028 26.4097 164.792 26.6373 164.315 26.6373H148.032C147.789 26.6122 147.544 26.641 147.313 26.7217C147.083 26.8024 146.874 26.9329 146.7 27.1039C146.426 27.4708 146.291 27.9223 146.319 28.3786V29.437C146.319 30.5979 146.882 31.1783 148.009 31.1783H160.193C162.078 31.1783 163.498 31.6399 164.452 32.563C165.406 33.4862 165.883 34.8089 165.883 36.5312V39.0237C165.911 39.6975 165.802 40.3701 165.561 41.0007C165.32 41.6312 164.953 42.2067 164.482 42.6922C163.551 43.6254 162.1 44.0933 160.128 44.0958H142.117C141.621 44.0958 141.354 43.8644 141.354 43.4092V40.4539C141.354 39.9986 141.602 39.7672 142.117 39.7672H159.178C159.421 39.7927 159.667 39.764 159.897 39.6832C160.128 39.6025 160.337 39.4718 160.51 39.3006C160.786 38.9347 160.922 38.4825 160.892 38.0259V36.7513C160.892 35.5904 160.327 35.0062 159.201 35.0062H147.025C145.14 35.0062 143.721 34.5446 142.77 33.6215C141.818 32.6983 141.341 31.3769 141.339 29.6571V27.3809C141.309 26.7081 141.416 26.0362 141.654 25.4057C141.892 24.7753 142.256 24.1992 142.724 23.7124C143.655 22.7791 145.107 22.3125 147.078 22.3125H164.315Z"
        fill="#69BDF9" />
    <path
        d="M10.5218 57.9578C10.5218 59.4753 9.44193 60.162 8.44216 60.162C7.32029 60.162 6.44263 59.3387 6.44263 58.0261C6.44263 56.6452 7.36608 55.8296 8.51085 55.8296C9.65562 55.8296 10.5218 56.6983 10.5218 57.9578ZM7.21726 57.9996C7.21726 58.9101 7.73622 59.5929 8.47651 59.5929C9.21679 59.5929 9.74339 58.9176 9.74339 57.9844C9.74339 57.2788 9.39232 56.3949 8.49559 56.3949C7.59885 56.3949 7.21726 57.2181 7.21726 57.9996Z"
        fill="white" />
    <path
        d="M15.4979 54.5093C15.2127 54.5977 14.9203 54.6612 14.6241 54.699C14.3341 54.7178 14.0514 54.7971 13.7943 54.9317C13.5372 55.0664 13.3116 55.2534 13.132 55.4805C12.8701 55.8931 12.7142 56.3634 12.678 56.85H12.7008C12.827 56.571 13.0319 56.3343 13.2906 56.1687C13.5493 56.0031 13.8508 55.9156 14.1585 55.9168C15.185 55.9168 15.9367 56.6452 15.9367 57.9654C15.9367 59.2856 15.227 60.1695 14.0059 60.1695C12.5368 60.1695 12.056 58.7621 12.056 57.3812C12.0129 56.5725 12.2396 55.7724 12.7008 55.1049C13.0824 54.5207 13.6777 54.2627 14.4943 54.1262C14.8449 54.0743 15.1916 53.9995 15.5323 53.9023L15.4979 54.5093ZM14.0059 56.4745C13.8099 56.4694 13.6165 56.5199 13.4483 56.62C13.2801 56.7201 13.1439 56.8657 13.0557 57.0397C12.9131 57.3124 12.8422 57.6164 12.8497 57.9237C12.8497 58.6065 13.1931 59.6042 14.0212 59.6042C14.8492 59.6042 15.1659 58.7886 15.1659 58.0185C15.1697 57.347 14.8912 56.4745 14.0059 56.4745Z"
        fill="white" />
    <path
        d="M21.5309 57.9578C21.5309 59.4753 20.4548 60.162 19.455 60.162C18.3331 60.162 17.4517 59.3387 17.4517 58.0261C17.4517 56.6452 18.3751 55.8296 19.5237 55.8296C20.6723 55.8296 21.5309 56.6983 21.5309 57.9578ZM18.2301 57.9996C18.2301 58.9101 18.7453 59.5929 19.4894 59.5929C20.2335 59.5929 20.7562 58.9176 20.7562 57.9844C20.7562 57.2788 20.4014 56.3949 19.5046 56.3949C18.6079 56.3949 18.2301 57.2181 18.2301 57.9996Z"
        fill="white" />
    <path
        d="M23.351 57.2825C23.351 56.7514 23.3319 56.3227 23.3167 55.9282H23.9882L24.0302 56.6414C24.1798 56.3853 24.3975 56.1751 24.6594 56.0339C24.9212 55.8927 25.2171 55.826 25.5146 55.8409C26.5296 55.8409 27.289 56.6907 27.289 57.9426C27.289 59.4335 26.3656 60.1733 25.3811 60.1733C25.1283 60.1838 24.8772 60.1292 24.6519 60.0149C24.4266 59.9006 24.2348 59.7304 24.0951 59.5208V61.7742H23.3319L23.351 57.2825ZM24.1142 58.3865C24.1112 58.4913 24.1227 58.5959 24.1485 58.6976C24.2119 58.9512 24.3592 59.1764 24.5669 59.3367C24.7745 59.497 25.0304 59.5832 25.2933 59.5815C26.0946 59.5815 26.5602 58.929 26.5602 57.9768C26.5602 57.1535 26.1213 56.4403 25.32 56.4403C25.0519 56.445 24.7933 56.5393 24.5856 56.7079C24.378 56.8765 24.2334 57.1096 24.1752 57.3698C24.1453 57.467 24.1286 57.5678 24.1256 57.6695L24.1142 58.3865Z"
        fill="white" />
    <path
        d="M29.3077 55.917L30.2159 58.3677C30.3189 58.6447 30.422 58.9672 30.4907 59.2175H30.5097C30.5861 58.9672 30.67 58.6523 30.7769 58.3526L31.6049 55.917H32.4062L31.2615 58.8761C30.7196 60.2987 30.3495 61.0195 29.8305 61.471C29.5655 61.7064 29.2454 61.8721 28.8994 61.9528L28.7086 61.3268C28.953 61.2427 29.1795 61.1141 29.3764 60.9475C29.6485 60.7167 29.8661 60.4291 30.0137 60.1053C30.0546 60.0504 30.0766 59.9839 30.0766 59.9156C30.0766 59.8473 30.0546 59.7808 30.0137 59.7259L28.4873 55.9019L29.3077 55.917Z"
        fill="white" />
    <path
        d="M37.0235 55.917V59.502H37.4547L37.4051 61.3761H36.8099L36.7755 60.0673H33.8869L33.8449 61.3761H33.2572L33.2229 59.5172H33.5778C33.756 59.2554 33.8948 58.9691 33.9899 58.6674C34.1558 58.1317 34.2382 57.5739 34.2341 57.0134V55.917H37.0235ZM34.9019 57.1689C34.9094 57.6941 34.8361 58.2174 34.6844 58.7205C34.6029 58.9845 34.4929 59.2389 34.3562 59.4793H36.2642V56.4785H34.8981L34.9019 57.1689Z"
        fill="white" />
    <path
        d="M42.961 57.9578C42.961 59.4753 41.8811 60.162 40.8814 60.162C39.7595 60.162 38.8818 59.3387 38.8818 58.0261C38.8818 56.6452 39.8015 55.8296 40.9501 55.8296C42.0986 55.8296 42.961 56.6983 42.961 57.9578ZM39.6565 57.9996C39.6565 58.9101 40.1754 59.5929 40.9157 59.5929C41.656 59.5929 42.1826 58.9176 42.1826 57.9844C42.1826 57.2788 41.8277 56.3949 40.931 56.3949C40.0342 56.3949 39.6565 57.2181 39.6565 57.9996Z"
        fill="white" />
    <path
        d="M44.7507 55.9656C45.1907 55.9044 45.6344 55.874 46.0787 55.8745C46.7884 55.8745 47.9447 55.9921 47.9447 56.9102C47.9355 57.1452 47.8426 57.3692 47.6825 57.5423C47.5224 57.7154 47.3056 57.8262 47.0708 57.8548C47.6852 57.9421 48.1316 58.2759 48.1316 58.8753C48.1316 59.9641 46.7541 60.1007 45.9337 60.1007C45.4681 60.1007 44.9759 60.0665 44.7507 60.0514V55.9656ZM45.4758 59.5772C45.6933 59.5772 45.8573 59.6037 46.0787 59.6037C46.5976 59.6037 47.357 59.4899 47.357 58.8829C47.357 58.2759 46.7426 58.1545 46.0291 58.1545H45.4758V59.5772ZM45.4758 57.6803H46.0443C46.6053 57.6803 47.1891 57.5172 47.1891 57.0202C47.1891 56.6067 46.8075 56.4094 46.0672 56.4094C45.8721 56.4106 45.6773 56.422 45.4834 56.4436L45.4758 57.6803Z"
        fill="white" />
    <path
        d="M52.8824 59.0731C52.8796 59.4054 52.9 59.7375 52.9435 60.067H52.2642L52.2032 59.5435H52.1765C52.0289 59.74 51.8362 59.8986 51.6146 60.0062C51.3929 60.1138 51.1486 60.1671 50.902 60.1619C50.7374 60.174 50.5721 60.152 50.4166 60.0972C50.2611 60.0424 50.1187 59.9561 49.9985 59.8438C49.8783 59.7314 49.7829 59.5955 49.7184 59.4445C49.6539 59.2935 49.6216 59.1309 49.6236 58.9669C49.6236 57.9654 50.5204 57.4153 52.1345 57.4267V57.3394C52.1511 57.2111 52.138 57.0807 52.0963 56.9582C52.0545 56.8356 51.9852 56.7242 51.8936 56.6324C51.8019 56.5405 51.6904 56.4707 51.5675 56.4282C51.4446 56.3857 51.3135 56.3717 51.1843 56.3872C50.7968 56.384 50.4165 56.492 50.0892 56.6983L49.9174 56.1899C50.3355 55.943 50.8125 55.812 51.2988 55.8105C52.5733 55.8105 52.8824 56.6793 52.8824 57.4987V59.0731ZM52.1498 57.935C51.3217 57.935 50.383 58.064 50.383 58.872C50.3739 58.9673 50.3858 59.0634 50.4178 59.1537C50.4498 59.2439 50.5011 59.3262 50.5683 59.3948C50.6354 59.4633 50.7168 59.5165 50.8067 59.5508C50.8966 59.585 50.9929 59.5993 51.0889 59.5928C51.3119 59.6001 51.5315 59.5368 51.716 59.4121C51.9005 59.2873 52.0404 59.1075 52.1154 58.8986C52.1387 58.8198 52.1502 58.738 52.1498 58.6558V57.935Z"
        fill="white" />
    <path
        d="M55.7214 55.917V57.59H57.6981V55.917H58.4613V60.0673H57.6981V58.1704H55.7214V60.0673H54.9583V55.917H55.7214Z"
        fill="white" />
    <path
        d="M61.2391 55.917V57.6621C61.2391 58.3146 61.22 58.7319 61.1857 59.3238H61.2124C61.4719 58.8154 61.594 58.5233 61.8955 58.0453L63.1967 55.9019H64.0858V60.0521H63.3531V58.307C63.3531 57.6318 63.3531 57.279 63.4028 56.6037C63.128 57.1424 62.9525 57.4762 62.7044 57.8973C62.3228 58.5385 61.842 59.3389 61.4032 60.0673H60.5217V55.917H61.2391Z"
        fill="white" />
    <path
        d="M66.6006 58.1286C66.5833 58.3209 66.6085 58.5146 66.6743 58.6963C66.7401 58.8779 66.8449 59.0431 66.9815 59.1804C67.1181 59.3176 67.2831 59.4236 67.4651 59.4909C67.6472 59.5582 67.8418 59.5853 68.0354 59.5702C68.4283 59.5827 68.8192 59.5089 69.1801 59.3539L69.3175 59.8926C68.8766 60.0804 68.4004 60.1723 67.9209 60.162C66.6387 60.162 65.8679 59.3122 65.8679 58.0603C65.8679 56.8084 66.612 55.8296 67.8255 55.8296C69.1992 55.8296 69.5503 57.0132 69.5503 57.7758C69.5527 57.8938 69.545 58.0118 69.5274 58.1286H66.6006ZM68.8252 57.5899C68.8252 57.1156 68.6268 56.3721 67.7759 56.3721C67.0127 56.3721 66.6693 57.0663 66.612 57.5899H68.8252Z"
        fill="white" />
    <path
        d="M77.0255 59.938C76.6479 60.1024 76.2395 60.1851 75.8274 60.1808C74.5681 60.1808 73.7515 59.331 73.7515 58.0601C73.7372 57.7646 73.7854 57.4694 73.8931 57.1936C74.0008 56.9178 74.1656 56.6675 74.3767 56.459C74.5879 56.2505 74.8407 56.0884 75.1189 55.9833C75.397 55.8781 75.6943 55.8321 75.9914 55.8484C76.355 55.8429 76.7151 55.9194 77.0446 56.0722L76.8729 56.6489C76.6003 56.5106 76.2974 56.4415 75.9914 56.4478C75.0336 56.4478 74.5185 57.161 74.5185 58.0184C74.5003 58.2171 74.5243 58.4173 74.589 58.6061C74.6537 58.795 74.7576 58.9682 74.8939 59.1145C75.0303 59.2608 75.1961 59.377 75.3806 59.4555C75.5651 59.5339 75.7641 59.573 75.9647 59.57C76.286 59.5741 76.6041 59.5067 76.8958 59.3727L77.0255 59.938Z"
        fill="white" />
    <path
        d="M81.7345 59.0731C81.7316 59.4054 81.752 59.7376 81.7955 60.0671H81.1125L81.0552 59.5435H81.0285C80.8801 59.7401 80.6868 59.8987 80.4645 60.0062C80.2422 60.1138 79.9973 60.1671 79.7502 60.1619C79.586 60.1735 79.4211 60.151 79.266 60.096C79.111 60.041 78.9691 59.9546 78.8493 59.8423C78.7295 59.73 78.6345 59.5942 78.5702 59.4435C78.5058 59.2929 78.4737 59.1306 78.4757 58.9669C78.4757 57.9654 79.3724 57.4153 80.9827 57.4267V57.3394C80.9992 57.2114 80.9862 57.0814 80.9447 56.9592C80.9031 56.837 80.8341 56.7258 80.7429 56.634C80.6517 56.5423 80.5407 56.4724 80.4183 56.4296C80.2959 56.3868 80.1653 56.3723 80.0364 56.3872C79.6488 56.384 79.2686 56.492 78.9412 56.6983L78.7695 56.1899C79.1862 55.943 79.662 55.8119 80.147 55.8105C81.4254 55.8105 81.7345 56.6793 81.7345 57.4987V59.0731ZM81.0018 57.935C80.1738 57.935 79.235 58.064 79.235 58.8721C79.226 58.9673 79.2378 59.0634 79.2698 59.1537C79.3018 59.2439 79.3532 59.3262 79.4203 59.3948C79.4875 59.4633 79.5688 59.5166 79.6587 59.5508C79.7486 59.585 79.8449 59.5993 79.941 59.5928C80.1639 59.5996 80.3832 59.536 80.5676 59.4113C80.7519 59.2866 80.8919 59.1072 80.9675 58.8986C80.9907 58.8198 81.0023 58.738 81.0018 58.6558V57.935Z"
        fill="white" />
    <path
        d="M83.8713 55.9164H84.8024L85.5656 58.0067C85.6762 58.3178 85.8518 58.8224 85.9472 59.1448C86.0426 58.8261 86.2753 58.1774 86.4471 57.7222L87.111 55.9126H88.0497L88.3436 60.0629H87.6185L87.527 58.0826C87.5079 57.6273 87.4735 57.1038 87.4583 56.5993H87.4316C87.3171 56.9786 87.1988 57.3011 86.966 57.9422L86.1647 60.0363H85.619L84.8787 57.9802C84.7413 57.6008 84.5582 56.9938 84.4552 56.6068H84.4208C84.4208 57.0962 84.3865 57.6425 84.3598 58.0978L84.2491 60.0629H83.5508L83.8713 55.9164Z"
        fill="white" />
    <path
        d="M93.9682 57.9578C93.9682 59.4753 92.8921 60.162 91.8924 60.162C90.7705 60.162 89.8928 59.3387 89.8928 58.0261C89.8928 56.6452 90.8125 55.8296 91.961 55.8296C93.1096 55.8296 93.9682 56.6983 93.9682 57.9578ZM90.6675 57.9996C90.6675 58.9101 91.1826 59.5929 91.9267 59.5929C92.6708 59.5929 93.1936 58.9176 93.1936 57.9844C93.1936 57.2788 92.8387 56.3949 91.942 56.3949C91.0452 56.3949 90.6675 57.2181 90.6675 57.9996Z"
        fill="white" />
    <path
        d="M99.5663 57.9578C99.5663 59.4753 98.4864 60.162 97.4866 60.162C96.3685 60.162 95.4871 59.3387 95.4871 58.0261C95.4871 56.6452 96.4105 55.8296 97.5553 55.8296C98.7001 55.8296 99.5663 56.6983 99.5663 57.9578ZM96.2617 57.9996C96.2617 58.9101 96.7807 59.5929 97.5209 59.5929C98.2612 59.5929 98.7916 58.9176 98.7916 57.9844C98.7916 57.2788 98.4368 56.3949 97.54 56.3949C96.6433 56.3949 96.2617 57.2181 96.2617 57.9996Z"
        fill="white" />
    <path
        d="M104.542 54.5093C104.258 54.5973 103.967 54.6608 103.672 54.699C103.382 54.7168 103.099 54.7957 102.842 54.9304C102.585 55.0651 102.359 55.2526 102.18 55.4805C101.917 55.8928 101.76 56.3631 101.722 56.85H101.749C101.874 56.571 102.078 56.3342 102.336 56.1685C102.594 56.0028 102.896 55.9153 103.203 55.9167C104.229 55.9167 104.981 56.6451 104.981 57.9653C104.981 59.2855 104.275 60.1695 103.05 60.1695C101.585 60.1695 101.1 58.762 101.1 57.3811C101.057 56.5718 101.285 55.7711 101.749 55.1049C102.131 54.5207 102.722 54.2627 103.542 54.1261C103.889 54.0622 104.23 53.976 104.565 53.8682L104.542 54.5093ZM103.039 56.4744C102.843 56.4699 102.65 56.5205 102.481 56.6206C102.313 56.7206 102.177 56.8659 102.089 57.0397C101.946 57.3123 101.875 57.6164 101.883 57.9236C101.883 58.6065 102.226 59.6042 103.054 59.6042C103.882 59.6042 104.199 58.7886 104.199 58.0185C104.214 57.347 103.947 56.4744 103.039 56.4744Z"
        fill="white" />
    <path
        d="M109.774 59.938C109.396 60.1024 108.988 60.1851 108.576 60.1808C107.316 60.1808 106.5 59.331 106.5 58.0601C106.485 57.7646 106.534 57.4694 106.641 57.1936C106.749 56.9178 106.914 56.6675 107.125 56.459C107.336 56.2505 107.589 56.0884 107.867 55.9833C108.145 55.8781 108.443 55.8321 108.74 55.8484C109.103 55.8429 109.463 55.9194 109.793 56.0722L109.621 56.6489C109.349 56.5106 109.046 56.4415 108.74 56.4478C107.782 56.4478 107.267 57.161 107.267 58.0184C107.249 58.2171 107.273 58.4173 107.337 58.6061C107.402 58.795 107.506 58.9682 107.642 59.1145C107.779 59.2608 107.944 59.377 108.129 59.4555C108.313 59.5339 108.512 59.573 108.713 59.57C109.034 59.5741 109.352 59.5067 109.644 59.3727L109.774 59.938Z"
        fill="white" />
    <path
        d="M114.845 55.917V60.0673H114.082V56.524H112.655V57.5862C112.655 58.7509 112.544 59.5324 111.998 59.8852C111.763 60.0683 111.468 60.1588 111.17 60.1394L111.094 59.5513C111.244 59.5272 111.385 59.4673 111.506 59.3768C111.888 59.0961 111.937 58.5119 111.937 57.5862V55.917H114.845Z"
        fill="white" />
    <path
        d="M117.18 55.917L118.089 58.3677C118.192 58.6447 118.295 58.9672 118.363 59.2175C118.443 58.9672 118.527 58.6523 118.634 58.3526L119.459 55.917H120.264L119.119 58.8761C118.577 60.2987 118.207 61.0195 117.688 61.471C117.423 61.7064 117.103 61.8721 116.757 61.9528L116.566 61.3268C116.81 61.2435 117.035 61.1147 117.23 60.9475C117.504 60.718 117.724 60.4302 117.871 60.1053C117.909 60.0493 117.93 59.9832 117.93 59.9156C117.93 59.8479 117.909 59.7818 117.871 59.7259L116.345 55.9019L117.18 55.917Z"
        fill="white" />
    <path
        d="M122.267 55.9162L123.656 57.7258H123.805V55.9162H124.53V57.7258H124.675L126.056 55.9162H126.926L125.278 57.813C125.907 57.8813 126.277 58.2493 126.529 58.9094C126.655 59.3088 126.808 59.6992 126.987 60.0778H126.224C126.071 59.7711 125.944 59.4527 125.842 59.1256C125.782 58.8616 125.629 58.6275 125.411 58.4655C125.193 58.3035 124.924 58.2242 124.652 58.2417H124.526V60.0778H123.801V58.2303H123.671C123.076 58.2303 122.721 58.4466 122.462 59.1218C122.352 59.4436 122.225 59.759 122.08 60.0665H121.355C121.535 59.6911 121.691 59.3046 121.821 58.9094C122.08 58.2379 122.443 57.8699 123.072 57.8016L121.427 55.9048L122.267 55.9162Z"
        fill="white" />
    <path
        d="M129.227 55.917V57.6621C129.227 58.3146 129.208 58.7319 129.174 59.3238H129.2C129.46 58.8154 129.582 58.5233 129.883 58.0453L131.185 55.9019H132.074V60.0521H131.349V58.307C131.349 57.6318 131.349 57.279 131.398 56.6037C131.124 57.1424 130.948 57.4762 130.7 57.8973C130.318 58.5385 129.838 59.3389 129.399 60.0673H128.517V55.917H129.227Z"
        fill="white" />
    <path
        d="M134.142 55.9656C134.582 55.9042 135.026 55.8737 135.47 55.8745C136.176 55.8745 137.332 55.9921 137.332 56.9102C137.323 57.1446 137.231 57.3682 137.072 57.5412C136.912 57.7142 136.696 57.8253 136.462 57.8548C137.073 57.9421 137.523 58.2759 137.523 58.8753C137.523 59.9641 136.142 60.1007 135.325 60.1007C134.859 60.1007 134.367 60.0666 134.142 60.0514V55.9656ZM134.867 59.5772C135.081 59.5772 135.249 59.6037 135.47 59.6037C135.989 59.6037 136.745 59.4899 136.745 58.8829C136.745 58.2759 136.134 58.1545 135.417 58.1545H134.867V59.5772ZM134.867 57.6803H135.436C135.997 57.6803 136.58 57.5172 136.58 57.0202C136.58 56.6067 136.199 56.4094 135.459 56.4094C135.262 56.4106 135.066 56.422 134.871 56.4436L134.867 57.6803Z"
        fill="white" />
    <path
        d="M142.274 59.0726C142.269 59.405 142.29 59.7372 142.335 60.0665H141.652L141.58 59.5582C141.431 59.7548 141.238 59.9134 141.016 60.0209C140.793 60.1284 140.548 60.1818 140.301 60.1766C140.137 60.1881 139.972 60.1657 139.817 60.1107C139.662 60.0557 139.52 59.9693 139.4 59.857C139.281 59.7447 139.185 59.6089 139.121 59.4582C139.057 59.3075 139.025 59.1452 139.027 58.9815C139.027 57.98 139.923 57.4299 141.534 57.4413V57.3541C141.55 57.2261 141.537 57.0961 141.496 56.9739C141.454 56.8517 141.385 56.7405 141.294 56.6487C141.203 56.5569 141.092 56.487 140.969 56.4442C140.847 56.4015 140.716 56.387 140.587 56.4018C140.2 56.3986 139.82 56.5067 139.492 56.7129L139.321 56.2046C139.737 55.9576 140.213 55.8266 140.698 55.8252C141.976 55.8252 142.285 56.6939 142.285 57.5134L142.274 59.0726ZM141.541 57.9345C140.713 57.9345 139.775 58.0635 139.775 58.8715C139.766 58.9668 139.777 59.0629 139.809 59.1532C139.841 59.2434 139.893 59.3257 139.96 59.3942C140.027 59.4628 140.108 59.516 140.198 59.5502C140.288 59.5844 140.385 59.5988 140.481 59.5923C140.703 59.5985 140.922 59.5347 141.107 59.4101C141.291 59.2855 141.431 59.1063 141.507 58.8981C141.53 58.8192 141.542 58.7374 141.541 58.6553V57.9345Z"
        fill="white" />
    <path
        d="M145.094 55.917V57.59H147.067V55.917H147.83V60.0673H147.067V58.1704H145.094V60.0673H144.331V55.917H145.094Z"
        fill="white" />
    <path
        d="M150.627 55.917V57.6621C150.627 58.3146 150.627 58.7319 150.577 59.3238H150.604C150.86 58.8154 150.986 58.5233 151.283 58.0453L152.585 55.9019H153.474V60.0521H152.749V58.307C152.749 57.6318 152.768 57.279 152.802 56.6037H152.783C152.508 57.1424 152.336 57.4762 152.085 57.8973C151.703 58.5385 151.222 59.3389 150.783 60.0673H149.906V55.917H150.627Z"
        fill="white" />
    <path
        d="M158.648 60.0668H157.885V58.3255H157.339C157.214 58.3163 157.088 58.3327 156.969 58.3738C156.85 58.4149 156.741 58.4798 156.648 58.5645C156.328 58.8149 156.217 59.3232 156.053 59.7216C156.003 59.8399 155.945 59.9552 155.881 60.0668H155.069C155.172 59.9184 155.259 59.7594 155.328 59.5926C155.507 59.1905 155.61 58.6518 155.984 58.3407C156.12 58.2229 156.282 58.1407 156.458 58.1017C156.176 58.0993 155.905 57.9908 155.7 57.7979C155.496 57.6049 155.372 57.3421 155.355 57.0622C155.353 56.8763 155.404 56.6937 155.501 56.5348C155.598 56.376 155.738 56.2472 155.904 56.1631C156.342 55.9506 156.826 55.8527 157.312 55.8786C157.759 55.8768 158.205 55.906 158.648 55.9658V60.0668ZM157.885 56.4135C157.676 56.3836 157.466 56.3697 157.255 56.3718C156.748 56.3718 156.11 56.5159 156.11 57.0888C156.11 57.6616 156.774 57.821 157.225 57.821H157.869L157.885 56.4135Z"
        fill="white" />
</svg>